<?xml version="1.0" encoding="utf-8"?>
<!-- Generator: Adobe Illustrator 24.1.2, SVG Export Plug-In . SVG Version: 6.00 Build 0)  -->
<svg version="1.1" id="Слой_1" xmlns="http://www.w3.org/2000/svg" xmlns:xlink="http://www.w3.org/1999/xlink" x="0px" y="0px"
	 viewBox="0 0 403 544" style="enable-background:new 0 0 403 544;" xml:space="preserve">
<style type="text/css">
	.st0{display:none;fill:url(#SVGID_1_);}
	.st1{fill:#41B883;}
	.st2{fill:#47190A;}
	.st3{fill:none;}
	.st4{fill:#147260;}
	.st5{fill:none;stroke:#147260;stroke-width:14;stroke-miterlimit:10;}
	.st6{fill:#FFFFFF;}
</style>
<linearGradient id="SVGID_1_" gradientUnits="userSpaceOnUse" x1="220.4809" y1="435.5373" x2="220.4809" y2="-92">
	<stop  offset="0" style="stop-color:#FFD791"/>
	<stop  offset="0.5165" style="stop-color:#F7B763"/>
	<stop  offset="1" style="stop-color:#EE9A56"/>
</linearGradient>
<rect x="-333.77" y="-92" class="st0" width="1108.5" height="739"/>
<path class="st1" d="M11.57,208.02L202,536.51l190.43-328.49h-76.17L202,405.11L86.79,208.02H11.57z"/>
<circle class="st2" cx="211.95" cy="245.16" r="0.82"/>
<polygon class="st3" points="173.2,147.73 201.01,195.06 201.01,195.07 228.81,146.71 201.01,99.39 201.01,99.38 "/>
<g>
	<polygon class="st4" points="200.97,130.58 227.43,175.62 200.97,221.63 200.97,221.63 200.97,298.79 200.97,298.8 254.17,206.59 
		315.93,206.59 200.97,8.96 	"/>
	<polygon class="st1" points="174.51,176.59 200.96,130.57 200.97,130.58 200.97,8.96 200.96,8.96 86.94,206.59 147.33,206.59 
		200.97,298.79 200.97,221.63 	"/>
</g>
<polyline class="st5" points="45,199 202,471 356,201 "/>
<rect x="316" y="179" class="st6" width="87" height="29"/>
<rect y="179" class="st6" width="87" height="29"/>
</svg>
