<svg width="18" height="16" viewBox="0 0 18 16" fill="none" xmlns="http://www.w3.org/2000/svg">
	<path d="M16.7147 8.59598C16.7381 8.57749 16.7607 8.55741 16.7823 8.53573C16.9886 8.32846 17.0496 8.0305 16.9653 7.76959C16.9302 7.65791 16.8686 7.55281 16.7804 7.46427C16.765 7.44875 16.7491 7.43406 16.7326 7.42018L10.0648 0.720711C9.77188 0.42643 9.297 0.42643 9.00411 0.720711C8.71122 1.01499 8.71122 1.49211 9.00411 1.7864L14.4345 7.24247L1.74816 7.24247C1.33395 7.24247 0.998159 7.57984 0.998159 7.99602C0.998159 8.41219 1.33395 8.74957 1.74816 8.74957L14.4405 8.74957L9.00227 14.2136C8.70938 14.5079 8.70938 14.985 9.00227 15.2793C9.29516 15.5736 9.77004 15.5736 10.0629 15.2793L16.7147 8.59598Z" fill="#737373"/>
</svg>
