<svg width="10" height="7" viewBox="0 0 10 7" fill="none" xmlns="http://www.w3.org/2000/svg">
	<path
		d="M9.83725 0.183975C9.71956 0.0661687 9.56003 0 9.39369 0C9.22736 0 9.06783 0.0661687 8.95014 0.183975L3.87019 5.21664L1.04986 2.4319C0.932171 2.31409 0.77264 2.24793 0.606306 2.24793C0.439973 2.24793 0.280442 2.31409 0.162754 2.4319C0.0580711 2.54637 0 2.69601 0 2.85129C0 3.00657 0.0580711 3.15621 0.162754 3.27068L3.41827 6.49159C3.54032 6.60417 3.70013 6.66667 3.86601 6.66667C4.03188 6.66667 4.1917 6.60417 4.31375 6.49159L9.83725 1.02275C9.94193 0.908282 10 0.758643 10 0.603364C10 0.448086 9.94193 0.298447 9.83725 0.183975Z"
		fill="white"/>
</svg>
