<svg width="8" height="10" viewBox="0 0 8 10" fill="none" xmlns="http://www.w3.org/2000/svg">
	<path
		fill="white"
		d="M5.56 0.8C5.5862 0.736567 5.59979 0.668633 5.6 0.6C5.59793 0.441514 5.53405 0.290103 5.42197 0.178027C5.3099 0.0659515 5.15849 0.00207197 5 0H3C2.84151 0.00207197 2.6901 0.0659515 2.57803 0.178027C2.46595 0.290103 2.40207 0.441514 2.4 0.6C2.40021 0.668633 2.4138 0.736567 2.44 0.8H0.6C0.44087 0.8 0.288254 0.863217 0.175732 0.975739C0.0632106 1.08826 0 1.24087 0 1.4C0 1.55913 0.0632106 1.71175 0.175732 1.82427C0.288254 1.93679 0.44087 2 0.6 2H7.4C7.55913 2 7.71175 1.93679 7.82427 1.82427C7.93679 1.71175 8 1.55913 8 1.4C8 1.24087 7.93679 1.08826 7.82427 0.975739C7.71175 0.863217 7.55913 0.8 7.4 0.8H5.56Z
		M1.384 9.48001C1.39227 9.62503 1.45738 9.76095 1.56521 9.85829C1.67304 9.95564 1.81488 10.0066 1.96 10H6.008C6.15311 10.0066 6.29497 9.95564 6.4028 9.85829C6.51062 9.76095 6.57572 9.62503 6.584 9.48001L7.16 2.4H0.759998L1.384 9.48001ZM5.96 3.6L5.6 8.448C5.59791 8.54209 5.55906 8.63161 5.49177 8.69741C5.42448 8.7632 5.33411 8.80002 5.24 8.8H2.72C2.62589 8.80002 2.53551 8.7632 2.46823 8.69741C2.40094 8.63161 2.36209 8.54209 2.36 8.448L1.96 3.6H5.96Z"
	/>
</svg>
